<?xml version="1.0" encoding="UTF-8"?>
<svg id="_图层_1" data-name="图层_1" xmlns="http://www.w3.org/2000/svg" version="1.1" viewBox="0 0 778.96 444.57">
  <!-- Generator: Adobe Illustrator 29.6.1, SVG Export Plug-In . SVG Version: 2.1.1 Build 9)  -->
  <defs>
    <style>
      .st0 {
        fill: #DDDDDD;
      }

      .st0, .st1, .st2, .st3, .st4, .st5, .st6, .st7, .st8, .st9 {
        fill-rule: evenodd;
      }

      .st1 {
        fill: #FFFFFF;
      }

      .st10, .st2 {
        fill: #fff;
      }

      .st3 {
        fill: #CCCCCC;
      }

      .st4 {
        fill: #EEEEEE;
      }

      .st5 {
        fill: #BBBBBB;
      }

      .st6 {
        fill: #DDDDDD;
      }

      .st7 {
        fill: #333333;
      }

      .st8 {
        fill: #CCCCCC;
      }

      .st9 {
        fill: #EEEEEE;
      }

      .st11 {
        fill: #222222;
      }
    </style>
  </defs>
  <path class="st1" d="M-489.43-1207.08s7.52-.02,5.29-7.58c-2.23-7.55-8.45-14.5-10.68-28.4-1.14-7.12-.08-17.63,6.37-26.91,6.8-9.78,20.55-17.01,32.58-16.87,12.04-.14,25.26,5.59,32.58,16.87,6.15,9.48,7.51,19.79,6.37,26.91-2.23,13.9-8.34,20.54-10.57,28.09-2.23,7.55,4.72,7.58,4.72,7.58-1.91,14.25-26.97,11.29-34.82,8.97-6.86,2.02-34.65,1.39-31.84-8.67Z"/>
  <path class="st7" d="M-461.03-1228.21s1.99,2.57,4.21,2.68c2.21.11,3.96-1.27,4.54-1.94.58-.67.57-.85.73-.85s.74-.32,1.06.26c.32.58.2.85.17.92-.03.08,0,.12-.08.23-2.16,3.09-6.97,4.22-10.03,1.75-.98-.79-1.55-1.49-1.75-1.92-.24-.5.29-1.32,1.16-1.14Z"/>
  <path class="st1" d="M-477.62-1199.49c-.46,10.67-5.29,13.03-9.66,14.46-6.5,2.13-19.29-.51-29.14,4.19-5.39,2.57-9.39,8.04-9.32,13.91.1,10.01,9.73,15.54,18.22,11.37,2.77-1.36,1.14-7.4-2.14-6.24-1.5.53-7.4,1.36-7.43-4.15-.03-5.51,5.71-7.49,11.76-7.72,14.68-.57,28.09.05,37.05-13,.91-1.33.73,5.3-7.32,11.01-8.05,5.71-16.39,10.34-18.15,18.76-1.76,8.42,2.49,12.68,8.11,14.88,5.62,2.2,11.41-.5,13.29-2.44,3.02-3.15.29-7.54-2.46-5.42-.3.23-3.27,2.03-5.84,1.61-2.58-.42-5.2-3.63-3.53-6.82,1.67-3.18,6.04-6.75,9.56-8.7,13.63-7.55,23.28-19.51,24.55-36.35l1.32-17.5s-6.03,1.72-7.92,2.88c-1.89,1.16-5.07,13.16-20.96,15.28Z"/>
  <path class="st1" d="M-438.97-1199.65s11.37,19.7,30.53,23.27c11.28,2.1,25.71-.16,23.45-13.18,0,0,.25-4.27,5.01-2.63,2.32.8,3.35,2.58,3.67,4.78,2.55,17.69-17.64,22.89-31.33,21.5-16.18-1.65-27.38-10.52-34.87-18.72-.13-.14-.88-1.17-.99-.91-.18.45.3,2.35.09,2.11-3.31-3.66-5.76-8.81-6.96-10.76-3.87-6.31-4.02-4.06-4.02-4.4s.7-1.49,1.34-1.74c.64-.25,11.86-1.93,14.09.7Z"/>
  <path class="st1" d="M-445.49-1193.99c1.04,10.32,4.98,17.44,16.96,25.6,8.93,6.09,8.13,17.7,1.64,23.61-4.87,4.43-16.28,3.88-19.04-1.21-2.4-4.42,1.9-6,2.99-5.37,8.45,4.89,15.79-2.12,7.7-9.65-4.68-4.36-20.69-10.27-19.98-26.9.04-.87-1.28-10.04,3.12-10.94,1.24-.25,4.67,4.35,6.6,4.86Z"/>
  <path class="st1" d="M-427.08-1208.16c.08,14.12,24.48,18.25,31.21,3.39,3.86-8.53,6.05-20.74,13.01-24.25,6.96-3.51,14.92-1.17,16.88.98,1.96,2.15,1.37,4.74-.34,5.38-1.71.64-1.82.37-2.75,0-.93-.38-3.78-1.41-6.23-.75-2.45.66-5.93,2.47-7.72,8.57-2.93,9.98-6.7,23.44-17.23,28.35-15.29,7.12-31.92-5.7-32.31-5.57-1.72.56,4.2,8.04,3.78,7.43-.57-.81-12.07-5.8-12.07-5.8,0,0,4.07-9.08,4.34-9.66.27-.59,4.75-8.6,9.44-8.05Z"/>
  <path class="st1" d="M-429.96-1212.99s1.81,7.01,10.74,5.42c8.94-1.59,12.26-9.93,12.29-17.39.03-7.46-3.14-12.41-2.75-20.97.62-13.65,17.12-16.26,21.63-10.59,1.74,2.18-.46,4.36-1.56,4.7-1.1.35-2.56-.17-4.09-.29-7.04-.51-7.95,6.53-7,11.13,1.21,5.84,4.41,12.95,3.61,21.32-.9,9.42-10.03,21.99-22.22,21.43-8.32-.38-14.71-3.39-10.64-14.75Z"/>
  <path class="st1" d="M-483.18-1210s-1.9,3.97-9.54,2.66c-7.65-1.31-10.47-9.32-10.68-16.28-.25-8.1,6.59-29.35-10.31-31.63-6.87-.93-14.52,4.44-13.34,12.77.48,3.41,6.44,3.17,6.22,1.43-.61-4.8,2.51-6.59,3.94-6.74,6.56-.66,7.34,6.94,6.56,11.25-1.16,6.44-3.95,13.61-1.88,22.23,1.68,7,11.59,16.21,19.91,16.64,7.78.41,12.48-3.25,9.13-12.34Z"/>
  <path class="st1" d="M-513.33-1195.78c-2.87-2.14-6.1-4.28-8.45-5.4-5.51-2.61-10.37-2.26-15.22,4.4-2.15,2.96-6.99.31-5.38-3.4,2.58-5.95,6.22-9.21,10.63-10.48,8-2.3,13.35.9,19.53,5.4,8.8,6.41,19.41,15.6,31.02,1.02,1.67,3.39,30.07-15.43,9.2,9.5-10.9,13.02-30.42,7.08-41.33-1.06Z"/>
  <path class="st6" d="M-526-1249.07c-1.14,2.06-1.68,4-1.06,6.62,1.07,4.51,6.44,3.17,6.22,1.43-.61-4.8,2.51-6.59,3.94-6.74,2.05-.21,3.54.4,4.58,1.45,2.31,2.32,2.7,7.2,1.37,12.71-.11.61,6.65-11.4-1.47-17.44-4.25-3.16-11.25-2.23-13.58,1.97Z"/>
  <path class="st6" d="M-514.05-1196.26c-4.29-2.97-8.8-6.27-13.4-6.35-3.31-.06-6.45,1.61-9.58,5.91-2.15,2.96-6.99.31-5.38-3.4.24-.55.49-1.08.75-1.59,6.91-13.41,22.74-4.04,27.61,5.43Z"/>
  <path class="st6" d="M-519.34-1155.69c3.42,1.89,7.76,2.13,11.83.13,2.77-1.36,1.14-7.4-2.14-6.24-1.5.53-7.4,1.24-7.43-4.15-.03-5.39,6.89-7.45,17.96-7.81-19.81-6.6-33.5,10.74-20.23,18.08Z"/>
  <path class="st6" d="M-472.34-1144.24c3.46-3.16.29-7.79-2.46-5.67-.3.23-3.27,2.03-5.84,1.61-1.62-.27-3.29-1.62-3.83-3.4-1.67-5.52,10.24-12.05,14.64-15.06-22.44,5.77-22.78,16.1-17.76,21.49,4.02,4.31,11.73,4.25,15.25,1.03Z"/>
  <path class="st6" d="M-389.79-1258.1c.68.46,1.29.98,1.76,1.57,1.74,2.18-.46,4.36-1.56,4.7-1.1.35-2.56-.17-4.09-.29-2.32-.17-4.03.44-5.12,1.61-3.56,3.79-1.73,10.31-.67,14.29-4.73-8.96-4.28-15.44-.55-19.27,2.41-2.47,7.79-4.27,10.24-2.62Z"/>
  <path class="st6" d="M-366.78-1228.71c.34.2.59.44.79.67,1.96,2.15,1.37,4.74-.34,5.38-1.71.64-1.82.37-2.75,0-.93-.38-3.78-1.41-6.23-.75-2.45.66-5.93,2.47-7.72,8.56-.51,1.74-1.05,3.58-1.64,5.47-.23-8.71,1.33-14.15,6.56-17.8,2.93-2.05,8.38-3.25,11.32-1.53Z"/>
  <path class="st6" d="M-394.51-1176.4c8.24-1.67,10.53-7.31,9.5-13.23,0,0,.25-4.27,5.01-2.63,2.32.8,3.35,2.58,3.67,4.78-.38,4.7-6.66,11.24-18.17,11.08Z"/>
  <path class="st6" d="M-442.07-1142.79c-1.72-.75-3.13-1.81-3.88-3.2-2.4-4.42,1.9-6,2.99-5.37,8.45,4.89,15.79-2.12,7.7-9.65-.51-.48-1.16-.97-1.91-1.5,17.52,6.2,6.43,24.68-4.9,19.72Z"/>
  <path class="st2" d="M-468.09-1248.63s-3.61-2.06-7.66.92c-4.05,2.97-3.88,8.01-3.65,11.11.24,3.11,1.96,6.74,5.43,8.05,3.48,1.31,7.56-.22,9.25-3.68,1.69-3.46,3-12.42-3.37-16.41Z"/>
  <path class="st7" d="M-471.23-1244.38c2.72,0,4.92,2.85,4.92,6.36s-2.2,6.36-4.92,6.36-4.92-2.85-4.92-6.36,2.2-6.36,4.92-6.36Z"/>
  <path class="st2" d="M-469.47-1243.54c1.19,0,2.16.97,2.16,2.16s-.97,2.16-2.16,2.16-2.16-.97-2.16-2.16.97-2.16,2.16-2.16Z"/>
  <path class="st2" d="M-438.15-1248.63s-3.61-2.06-7.66.92c-4.05,2.97-3.88,8.01-3.65,11.11.24,3.11,1.96,6.74,5.43,8.05,3.48,1.31,7.56-.22,9.25-3.68,1.69-3.46,3-12.42-3.37-16.41Z"/>
  <path class="st7" d="M-441.29-1244.38c2.72,0,4.92,2.85,4.92,6.36s-2.2,6.36-4.92,6.36-4.92-2.85-4.92-6.36,2.2-6.36,4.92-6.36Z"/>
  <path class="st2" d="M-439.53-1243.54c1.19,0,2.16.97,2.16,2.16s-.97,2.16-2.16,2.16-2.16-.97-2.16-2.16.97-2.16,2.16-2.16Z"/>
  <path class="st5" d="M353.79-1203.64s7.52-.02,5.29-7.58c-2.23-7.55-8.45-14.5-10.68-28.4-1.14-7.12-.08-17.63,6.37-26.91,6.8-9.78,20.55-17.01,32.58-16.87,12.04-.14,25.26,5.59,32.58,16.87,6.15,9.48,7.51,19.79,6.37,26.91-2.23,13.9-8.34,20.54-10.57,28.09-2.23,7.55,4.72,7.58,4.72,7.58-1.91,14.25-26.97,11.29-34.82,8.97-6.86,2.02-34.65,1.39-31.84-8.67Z"/>
  <path class="st2" d="M382.19-1224.77s1.99,2.57,4.21,2.68c2.21.11,3.96-1.27,4.54-1.94.58-.67.57-.85.73-.85s.74-.32,1.06.26c.32.58.2.85.17.92-.03.08,0,.12-.08.23-2.16,3.09-6.97,4.22-10.03,1.74-.98-.79-1.55-1.49-1.75-1.92-.24-.5.29-1.32,1.16-1.14Z"/>
  <path class="st5" d="M365.61-1196.06c-.46,10.67-5.29,13.03-9.66,14.46-6.5,2.13-19.29-.51-29.14,4.19-5.39,2.57-9.39,8.04-9.32,13.91.1,10.01,9.73,15.54,18.22,11.37,2.77-1.36,1.14-7.4-2.14-6.24-1.5.53-7.4,1.36-7.43-4.15-.03-5.51,5.71-7.49,11.76-7.73,14.68-.57,28.09.05,37.05-13,.91-1.33.73,5.3-7.32,11.01-8.04,5.71-16.39,10.34-18.15,18.76-1.76,8.42,2.49,12.68,8.11,14.88,5.62,2.2,11.41-.5,13.29-2.44,3.02-3.15.29-7.54-2.46-5.42-.3.23-3.27,2.03-5.84,1.61-2.58-.42-5.2-3.63-3.53-6.82,1.67-3.18,6.04-6.75,9.56-8.7,13.63-7.55,23.28-19.51,24.55-36.35l1.32-17.5s-6.03,1.72-7.92,2.88c-1.89,1.16-5.07,13.16-20.96,15.28Z"/>
  <path class="st5" d="M404.26-1196.21s11.37,19.7,30.53,23.27c11.28,2.1,25.71-.16,23.45-13.18,0,0,.25-4.27,5.01-2.63,2.32.8,3.35,2.58,3.67,4.78,2.55,17.69-17.64,22.89-31.33,21.5-16.18-1.65-27.38-10.52-34.87-18.72-.13-.14-.88-1.16-.99-.91-.18.45.3,2.35.09,2.11-3.31-3.66-5.76-8.81-6.96-10.76-3.87-6.31-4.02-4.06-4.02-4.4s.7-1.49,1.34-1.74c.64-.25,11.86-1.93,14.09.7Z"/>
  <path class="st5" d="M397.73-1190.56c1.04,10.32,4.98,17.44,16.96,25.6,8.93,6.09,8.13,17.7,1.64,23.61-4.87,4.43-16.28,3.88-19.04-1.21-2.4-4.42,1.9-6,2.99-5.37,8.45,4.89,15.79-2.12,7.7-9.65-4.68-4.36-20.69-10.27-19.98-26.9.04-.87-1.28-10.04,3.12-10.94,1.24-.25,4.67,4.35,6.6,4.86Z"/>
  <path class="st5" d="M416.15-1204.72c.08,14.12,24.48,18.25,31.21,3.39,3.86-8.53,6.05-20.74,13.01-24.25,6.96-3.51,14.92-1.17,16.88.98,1.96,2.15,1.37,4.74-.34,5.38-1.71.64-1.82.37-2.75,0-.93-.38-3.78-1.41-6.23-.75-2.45.66-5.93,2.47-7.72,8.57-2.93,9.98-6.7,23.44-17.23,28.35-15.29,7.12-31.92-5.7-32.31-5.57-1.72.56,4.2,8.04,3.78,7.43-.57-.81-12.07-5.8-12.07-5.8,0,0,4.07-9.08,4.34-9.66.27-.59,4.75-8.6,9.44-8.05Z"/>
  <path class="st5" d="M413.26-1209.55s1.81,7.01,10.74,5.42c8.94-1.59,12.26-9.93,12.29-17.39s-3.14-12.41-2.75-20.97c.62-13.65,17.12-16.26,21.63-10.59,1.74,2.18-.46,4.36-1.56,4.7-1.1.35-2.56-.17-4.09-.29-7.04-.51-7.95,6.53-7,11.13,1.21,5.84,4.41,12.95,3.61,21.32-.9,9.42-10.03,21.99-22.22,21.43-8.32-.38-14.71-3.39-10.64-14.75Z"/>
  <path class="st5" d="M360.04-1206.56s-1.9,3.97-9.54,2.66c-7.65-1.31-10.47-9.32-10.68-16.28-.25-8.1,6.59-29.35-10.31-31.63-6.87-.93-14.52,4.44-13.34,12.77.48,3.41,6.44,3.17,6.22,1.43-.61-4.8,2.51-6.59,3.94-6.74,6.56-.66,7.34,6.94,6.56,11.25-1.16,6.44-3.95,13.61-1.88,22.23,1.68,7,11.59,16.21,19.91,16.64,7.78.41,12.47-3.25,9.13-12.34Z"/>
  <path class="st5" d="M329.89-1192.34c-2.87-2.14-6.1-4.28-8.45-5.4-5.51-2.61-10.37-2.26-15.22,4.4-2.15,2.96-6.99.31-5.38-3.4,2.58-5.95,6.22-9.21,10.63-10.48,8-2.3,13.35.9,19.53,5.4,8.8,6.41,19.41,15.6,31.02,1.02,1.67,3.39,30.07-15.43,9.2,9.5-10.9,13.02-30.42,7.08-41.33-1.06Z"/>
  <path class="st6" d="M317.22-1245.64c-1.14,2.06-1.68,4-1.06,6.62,1.07,4.51,6.44,3.17,6.22,1.43-.61-4.8,2.51-6.59,3.94-6.74,2.05-.2,3.54.4,4.58,1.45,2.31,2.32,2.7,7.2,1.37,12.71-.11.61,6.65-11.4-1.47-17.44-4.25-3.16-11.25-2.23-13.58,1.97Z"/>
  <path class="st6" d="M329.17-1192.83c-4.29-2.97-8.8-6.27-13.4-6.35-3.31-.06-6.45,1.61-9.58,5.91-2.15,2.96-6.99.31-5.38-3.4.24-.55.49-1.08.75-1.59,6.91-13.41,22.74-4.04,27.61,5.43Z"/>
  <path class="st6" d="M323.89-1152.26c3.42,1.89,7.76,2.13,11.83.13,2.77-1.36,1.14-7.4-2.14-6.24-1.5.53-7.4,1.24-7.43-4.15-.03-5.39,6.89-7.45,17.96-7.81-19.81-6.6-33.5,10.74-20.23,18.08Z"/>
  <path class="st6" d="M370.89-1140.8c3.46-3.16.29-7.79-2.46-5.67-.3.23-3.27,2.03-5.84,1.61-1.62-.27-3.29-1.62-3.83-3.4-1.67-5.52,10.24-12.05,14.64-15.06-22.44,5.77-22.78,16.1-17.76,21.49,4.01,4.31,11.73,4.25,15.25,1.03Z"/>
  <path class="st6" d="M453.44-1254.67c.68.46,1.29.98,1.76,1.58,1.74,2.18-.46,4.36-1.56,4.7-1.1.35-2.56-.17-4.09-.29-2.32-.17-4.03.44-5.12,1.61-3.56,3.79-1.73,10.31-.67,14.29-4.73-8.96-4.28-15.44-.55-19.27,2.41-2.47,7.79-4.27,10.24-2.62Z"/>
  <path class="st6" d="M476.45-1225.27c.34.2.59.44.79.67,1.96,2.15,1.37,4.75-.34,5.38-1.71.64-1.82.37-2.75,0-.93-.38-3.78-1.41-6.23-.75-2.45.66-5.93,2.47-7.72,8.56-.51,1.74-1.05,3.58-1.64,5.47-.23-8.71,1.33-14.15,6.56-17.8,2.93-2.05,8.38-3.25,11.32-1.53Z"/>
  <path class="st6" d="M448.71-1172.96c8.24-1.67,10.53-7.31,9.5-13.23,0,0,.25-4.27,5.01-2.63,2.32.8,3.35,2.58,3.67,4.78-.38,4.7-6.66,11.24-18.17,11.08Z"/>
  <path class="st0" d="M401.16-1139.35c-1.72-.75-3.13-1.81-3.88-3.2-2.4-4.42,1.9-6,2.99-5.37,8.45,4.89,15.79-2.12,7.7-9.65-.51-.48-1.16-.97-1.91-1.5,17.52,6.2,6.43,24.68-4.9,19.71Z"/>
  <path class="st2" d="M375.13-1245.19s-3.61-2.06-7.66.92c-4.05,2.98-3.88,8.01-3.65,11.11.24,3.11,1.96,6.74,5.43,8.05,3.48,1.31,7.56-.22,9.25-3.68,1.69-3.46,3-12.42-3.37-16.41Z"/>
  <path class="st7" d="M371.99-1240.95c2.72,0,4.92,2.85,4.92,6.36s-2.2,6.36-4.92,6.36-4.92-2.85-4.92-6.36,2.2-6.36,4.92-6.36Z"/>
  <path class="st2" d="M373.75-1240.11c1.19,0,2.16.97,2.16,2.16s-.97,2.16-2.16,2.16-2.16-.97-2.16-2.16.97-2.16,2.16-2.16Z"/>
  <path class="st2" d="M405.08-1245.19s-3.61-2.06-7.66.92c-4.05,2.98-3.88,8.01-3.64,11.11.24,3.11,1.96,6.74,5.43,8.05,3.48,1.31,7.56-.22,9.25-3.68,1.69-3.46,3-12.42-3.37-16.41Z"/>
  <path class="st7" d="M401.93-1240.95c2.72,0,4.92,2.85,4.92,6.36s-2.2,6.36-4.92,6.36-4.92-2.85-4.92-6.36,2.2-6.36,4.92-6.36Z"/>
  <path class="st2" d="M403.69-1240.11c1.19,0,2.16.97,2.16,2.16s-.97,2.16-2.16,2.16-2.16-.97-2.16-2.16.97-2.16,2.16-2.16Z"/>
  <path class="st4" d="M-489.43-249.08s7.52-.02,5.29-7.58c-2.23-7.55-8.45-14.5-10.68-28.4-1.14-7.12-.08-17.63,6.37-26.91,6.8-9.78,20.55-17.01,32.58-16.87,12.04-.14,25.26,5.59,32.58,16.87,6.15,9.48,7.51,19.79,6.37,26.91-2.23,13.9-8.34,20.54-10.57,28.09-2.23,7.55,4.72,7.58,4.72,7.58-1.91,14.25-26.97,11.29-34.82,8.97-6.86,2.02-34.65,1.39-31.84-8.67Z"/>
  <path class="st2" d="M-461.03-270.21s1.99,2.57,4.21,2.68c2.21.11,3.96-1.27,4.54-1.94.58-.67.57-.85.73-.85s.74-.32,1.06.26c.32.58.2.85.17.92-.03.08,0,.12-.08.23-2.16,3.09-6.97,4.22-10.03,1.74-.98-.79-1.55-1.49-1.75-1.92-.24-.5.29-1.32,1.16-1.14Z"/>
  <path class="st4" d="M-477.62-241.49c-.46,10.67-5.29,13.03-9.66,14.46-6.5,2.13-19.29-.51-29.14,4.19-5.39,2.57-9.39,8.04-9.32,13.91.1,10.01,9.73,15.54,18.22,11.37,2.77-1.36,1.14-7.4-2.14-6.24-1.5.53-7.4,1.36-7.43-4.15-.03-5.51,5.71-7.49,11.76-7.73,14.68-.57,28.09.05,37.05-13,.91-1.33.73,5.3-7.32,11.01-8.05,5.71-16.39,10.34-18.15,18.76-1.76,8.42,2.49,12.68,8.11,14.88,5.62,2.2,11.41-.5,13.29-2.44,3.02-3.15.29-7.54-2.46-5.42-.3.23-3.27,2.03-5.84,1.61-2.58-.42-5.2-3.63-3.53-6.82,1.67-3.18,6.04-6.75,9.56-8.7,13.63-7.55,23.28-19.51,24.55-36.35l1.32-17.5s-6.03,1.72-7.92,2.88c-1.89,1.16-5.07,13.16-20.96,15.28Z"/>
  <path class="st4" d="M-438.97-241.65s11.37,19.7,30.53,23.27c11.28,2.1,25.71-.16,23.45-13.18,0,0,.25-4.27,5.01-2.63,2.32.8,3.35,2.58,3.67,4.78,2.55,17.69-17.64,22.89-31.33,21.5-16.18-1.65-27.38-10.52-34.87-18.72-.13-.14-.88-1.17-.99-.91-.18.45.3,2.35.09,2.11-3.31-3.66-5.76-8.81-6.96-10.76-3.87-6.31-4.02-4.06-4.02-4.4s.7-1.49,1.34-1.74c.64-.25,11.86-1.93,14.09.7Z"/>
  <path class="st4" d="M-445.49-235.99c1.04,10.32,4.98,17.44,16.96,25.6,8.93,6.09,8.13,17.7,1.64,23.61-4.87,4.43-16.28,3.88-19.04-1.21-2.4-4.42,1.9-6,2.99-5.37,8.45,4.89,15.79-2.12,7.7-9.65-4.68-4.36-20.69-10.27-19.98-26.9.04-.87-1.28-10.04,3.12-10.94,1.24-.25,4.67,4.35,6.6,4.86Z"/>
  <path class="st4" d="M-427.08-250.16c.08,14.12,24.48,18.25,31.21,3.39,3.86-8.53,6.05-20.74,13.01-24.25,6.96-3.51,14.92-1.17,16.88.98,1.96,2.15,1.37,4.74-.34,5.38-1.71.64-1.82.37-2.75,0-.93-.38-3.78-1.41-6.23-.75-2.45.66-5.93,2.47-7.72,8.57-2.93,9.98-6.7,23.44-17.23,28.35-15.29,7.12-31.92-5.7-32.31-5.57-1.72.56,4.2,8.04,3.78,7.43-.57-.81-12.07-5.8-12.07-5.8,0,0,4.07-9.08,4.34-9.66.27-.59,4.75-8.6,9.44-8.05Z"/>
  <path class="st4" d="M-429.96-254.99s1.81,7.01,10.74,5.42c8.94-1.59,12.26-9.93,12.29-17.39.03-7.46-3.14-12.41-2.75-20.97.62-13.65,17.12-16.26,21.63-10.59,1.74,2.18-.46,4.36-1.56,4.7-1.1.35-2.56-.17-4.09-.29-7.04-.51-7.95,6.53-7,11.13,1.21,5.84,4.41,12.95,3.61,21.32-.9,9.42-10.03,21.99-22.22,21.43-8.32-.38-14.71-3.39-10.64-14.75Z"/>
  <path class="st4" d="M-483.18-252s-1.9,3.97-9.54,2.66c-7.65-1.31-10.47-9.32-10.68-16.28-.25-8.1,6.59-29.35-10.31-31.63-6.87-.93-14.52,4.44-13.34,12.77.48,3.41,6.44,3.17,6.22,1.43-.61-4.8,2.51-6.59,3.94-6.74,6.56-.66,7.34,6.94,6.56,11.25-1.16,6.44-3.95,13.61-1.88,22.23,1.68,7,11.59,16.21,19.91,16.64,7.78.41,12.48-3.25,9.13-12.34Z"/>
  <path class="st4" d="M-513.33-237.78c-2.87-2.14-6.1-4.28-8.45-5.4-5.51-2.61-10.37-2.26-15.22,4.4-2.15,2.96-6.99.31-5.38-3.4,2.58-5.95,6.22-9.21,10.63-10.48,8-2.3,13.35.9,19.53,5.4,8.8,6.41,19.41,15.6,31.02,1.02,1.67,3.39,30.07-15.43,9.2,9.5-10.9,13.02-30.42,7.08-41.33-1.06Z"/>
  <path class="st8" d="M-526-291.07c-1.14,2.06-1.68,4-1.06,6.62,1.07,4.51,6.44,3.17,6.22,1.43-.61-4.8,2.51-6.59,3.94-6.74,2.05-.2,3.54.4,4.58,1.45,2.31,2.32,2.7,7.2,1.37,12.71-.11.61,6.65-11.4-1.47-17.44-4.25-3.16-11.25-2.23-13.58,1.97Z"/>
  <path class="st8" d="M-514.05-238.26c-4.29-2.97-8.8-6.27-13.4-6.35-3.31-.06-6.45,1.61-9.58,5.91-2.15,2.96-6.99.31-5.38-3.4.24-.55.49-1.08.75-1.59,6.91-13.41,22.74-4.04,27.61,5.43Z"/>
  <path class="st8" d="M-519.34-197.69c3.42,1.89,7.76,2.13,11.83.13,2.77-1.36,1.14-7.4-2.14-6.24-1.5.53-7.4,1.24-7.43-4.15-.03-5.39,6.89-7.45,17.96-7.81-19.81-6.6-33.5,10.74-20.23,18.08Z"/>
  <path class="st8" d="M-472.34-186.24c3.46-3.16.29-7.79-2.46-5.67-.3.23-3.27,2.03-5.84,1.61-1.62-.27-3.29-1.62-3.83-3.4-1.67-5.52,10.24-12.05,14.64-15.06-22.44,5.77-22.78,16.1-17.76,21.49,4.02,4.31,11.73,4.25,15.25,1.03Z"/>
  <path class="st8" d="M-389.79-300.1c.68.46,1.29.98,1.76,1.57,1.74,2.18-.46,4.36-1.56,4.7-1.1.35-2.56-.17-4.09-.29-2.32-.17-4.03.44-5.12,1.61-3.56,3.79-1.73,10.31-.67,14.29-4.73-8.96-4.28-15.44-.55-19.27,2.41-2.47,7.79-4.27,10.24-2.62Z"/>
  <path class="st8" d="M-366.78-270.71c.34.2.59.44.79.67,1.96,2.15,1.37,4.74-.34,5.38-1.71.64-1.82.37-2.75,0-.93-.38-3.78-1.41-6.23-.75-2.45.66-5.93,2.47-7.72,8.56-.51,1.74-1.05,3.58-1.64,5.47-.23-8.71,1.33-14.15,6.56-17.8,2.93-2.05,8.38-3.25,11.32-1.53Z"/>
  <path class="st8" d="M-394.51-218.4c8.24-1.67,10.53-7.31,9.5-13.23,0,0,.25-4.27,5.01-2.63,2.32.8,3.35,2.58,3.67,4.78-.38,4.7-6.66,11.24-18.17,11.08Z"/>
  <path class="st8" d="M-442.07-184.79c-1.72-.75-3.13-1.81-3.88-3.2-2.4-4.42,1.9-6,2.99-5.37,8.45,4.89,15.79-2.12,7.7-9.65-.51-.48-1.16-.97-1.91-1.5,17.52,6.2,6.43,24.68-4.9,19.71Z"/>
  <path class="st2" d="M-468.09-290.63s-3.61-2.06-7.66.92c-4.05,2.98-3.88,8.01-3.65,11.11.24,3.11,1.96,6.74,5.43,8.05,3.48,1.31,7.56-.22,9.25-3.68,1.69-3.46,3-12.42-3.37-16.41Z"/>
  <path class="st7" d="M-471.23-286.38c2.72,0,4.92,2.85,4.92,6.36s-2.2,6.36-4.92,6.36-4.92-2.85-4.92-6.36,2.2-6.36,4.92-6.36Z"/>
  <path class="st2" d="M-469.47-285.54c1.19,0,2.16.97,2.16,2.16s-.97,2.16-2.16,2.16-2.16-.97-2.16-2.16.97-2.16,2.16-2.16Z"/>
  <path class="st2" d="M-438.15-290.63s-3.61-2.06-7.66.92c-4.05,2.98-3.88,8.01-3.65,11.11.24,3.11,1.96,6.74,5.43,8.05,3.48,1.31,7.56-.22,9.25-3.68s3-12.42-3.37-16.41Z"/>
  <path class="st7" d="M-441.29-286.38c2.72,0,4.92,2.85,4.92,6.36s-2.2,6.36-4.92,6.36-4.92-2.85-4.92-6.36,2.2-6.36,4.92-6.36Z"/>
  <path class="st2" d="M-439.53-285.54c1.19,0,2.16.97,2.16,2.16s-.97,2.16-2.16,2.16-2.16-.97-2.16-2.16.97-2.16,2.16-2.16Z"/>
  <path class="st3" d="M353.79-245.64s7.52-.02,5.29-7.58c-2.23-7.55-8.45-14.5-10.68-28.4-1.14-7.12-.08-17.63,6.37-26.91,6.8-9.78,20.55-17.01,32.58-16.87,12.04-.14,25.26,5.59,32.58,16.87,6.15,9.48,7.51,19.79,6.37,26.91-2.23,13.9-8.34,20.54-10.57,28.09-2.23,7.55,4.72,7.58,4.72,7.58-1.91,14.25-26.97,11.29-34.82,8.97-6.86,2.02-34.65,1.39-31.84-8.67Z"/>
  <path class="st2" d="M382.19-266.77s1.99,2.57,4.21,2.68c2.21.11,3.96-1.27,4.54-1.94.58-.67.57-.85.73-.85s.74-.32,1.06.26c.32.58.2.85.17.93-.03.08,0,.12-.08.23-2.16,3.09-6.97,4.22-10.03,1.74-.98-.79-1.55-1.49-1.75-1.92-.24-.5.29-1.32,1.16-1.14Z"/>
  <path class="st3" d="M365.61-238.06c-.46,10.67-5.29,13.03-9.66,14.46-6.5,2.13-19.29-.51-29.14,4.19-5.39,2.57-9.39,8.04-9.32,13.91.1,10.01,9.73,15.54,18.22,11.37,2.77-1.36,1.14-7.4-2.14-6.24-1.5.53-7.4,1.36-7.43-4.15-.03-5.51,5.71-7.49,11.76-7.73,14.68-.57,28.09.05,37.05-13,.91-1.33.73,5.3-7.32,11.01-8.04,5.71-16.39,10.34-18.15,18.76-1.76,8.42,2.49,12.68,8.11,14.88,5.62,2.2,11.41-.5,13.29-2.44,3.02-3.15.29-7.54-2.46-5.42-.3.23-3.27,2.03-5.84,1.61-2.58-.42-5.2-3.63-3.53-6.82,1.67-3.18,6.04-6.75,9.56-8.7,13.63-7.55,23.28-19.51,24.55-36.35l1.32-17.5s-6.03,1.72-7.92,2.88c-1.89,1.16-5.07,13.16-20.96,15.28Z"/>
  <path class="st3" d="M404.26-238.21s11.37,19.7,30.53,23.27c11.28,2.1,25.71-.16,23.45-13.18,0,0,.25-4.27,5.01-2.63,2.32.8,3.35,2.58,3.67,4.78,2.55,17.69-17.64,22.89-31.33,21.5-16.18-1.65-27.38-10.52-34.87-18.72-.13-.14-.88-1.16-.99-.91-.18.45.3,2.35.09,2.11-3.31-3.66-5.76-8.81-6.96-10.76-3.87-6.31-4.02-4.06-4.02-4.4s.7-1.49,1.34-1.74c.64-.25,11.86-1.93,14.09.69Z"/>
  <path class="st3" d="M397.73-232.56c1.04,10.32,4.98,17.44,16.96,25.6,8.93,6.09,8.13,17.7,1.64,23.61-4.87,4.43-16.28,3.88-19.04-1.21-2.4-4.42,1.9-6,2.99-5.37,8.45,4.89,15.79-2.12,7.7-9.65-4.68-4.36-20.69-10.27-19.98-26.9.04-.87-1.28-10.04,3.12-10.94,1.24-.25,4.67,4.35,6.6,4.86Z"/>
  <path class="st3" d="M416.15-246.72c.08,14.12,24.48,18.25,31.21,3.39,3.86-8.53,6.05-20.74,13.01-24.25,6.96-3.51,14.92-1.17,16.88.98,1.96,2.15,1.37,4.74-.34,5.38-1.71.64-1.82.37-2.75,0-.93-.38-3.78-1.41-6.23-.75-2.45.66-5.93,2.47-7.72,8.57-2.93,9.98-6.7,23.44-17.23,28.35-15.29,7.12-31.92-5.7-32.31-5.57-1.72.56,4.2,8.04,3.78,7.43-.57-.81-12.07-5.8-12.07-5.8,0,0,4.07-9.08,4.34-9.66.27-.59,4.75-8.6,9.44-8.05Z"/>
  <path class="st3" d="M413.26-251.55s1.81,7.01,10.74,5.42c8.94-1.59,12.26-9.93,12.29-17.39s-3.14-12.41-2.75-20.97c.62-13.65,17.12-16.26,21.63-10.6,1.74,2.18-.46,4.36-1.56,4.7s-2.56-.17-4.09-.29c-7.04-.51-7.95,6.53-7,11.13,1.21,5.84,4.41,12.95,3.61,21.32-.9,9.42-10.03,21.99-22.22,21.43-8.32-.38-14.71-3.39-10.64-14.75Z"/>
  <path class="st3" d="M360.04-248.56s-1.9,3.97-9.54,2.66c-7.65-1.31-10.47-9.32-10.68-16.28-.25-8.1,6.59-29.35-10.31-31.63-6.87-.93-14.52,4.44-13.34,12.77.48,3.41,6.44,3.17,6.22,1.43-.61-4.8,2.51-6.59,3.94-6.74,6.56-.66,7.34,6.94,6.56,11.25-1.16,6.44-3.95,13.61-1.88,22.23,1.68,7,11.59,16.21,19.91,16.64,7.78.41,12.47-3.25,9.13-12.34Z"/>
  <path class="st3" d="M329.89-234.34c-2.87-2.14-6.1-4.28-8.45-5.4-5.51-2.61-10.37-2.26-15.22,4.4-2.15,2.96-6.99.31-5.38-3.4,2.58-5.95,6.22-9.21,10.63-10.48,8-2.3,13.35.9,19.53,5.4,8.8,6.41,19.41,15.6,31.02,1.02,1.67,3.39,30.07-15.43,9.2,9.5-10.9,13.02-30.42,7.08-41.33-1.06Z"/>
  <path class="st9" d="M317.22-287.64c-1.14,2.06-1.68,4-1.06,6.62,1.07,4.51,6.44,3.17,6.22,1.43-.61-4.8,2.51-6.59,3.94-6.74,2.05-.2,3.54.4,4.58,1.45,2.31,2.32,2.7,7.2,1.37,12.71-.11.61,6.65-11.4-1.47-17.44-4.25-3.16-11.25-2.23-13.58,1.97Z"/>
  <path class="st9" d="M329.17-234.83c-4.29-2.97-8.8-6.27-13.4-6.35-3.31-.06-6.45,1.61-9.58,5.91-2.15,2.96-6.99.31-5.38-3.4.24-.55.49-1.08.75-1.59,6.91-13.41,22.74-4.04,27.61,5.43Z"/>
  <path class="st9" d="M323.89-194.26c3.42,1.89,7.76,2.13,11.83.13,2.77-1.36,1.14-7.4-2.14-6.24-1.5.53-7.4,1.24-7.43-4.15-.03-5.39,6.89-7.45,17.96-7.81-19.81-6.6-33.5,10.74-20.23,18.08Z"/>
  <path class="st9" d="M370.89-182.8c3.46-3.16.29-7.79-2.46-5.67-.3.23-3.27,2.03-5.84,1.61-1.62-.27-3.29-1.62-3.83-3.4-1.67-5.52,10.24-12.05,14.64-15.06-22.44,5.77-22.78,16.1-17.76,21.49,4.01,4.31,11.73,4.25,15.25,1.03Z"/>
  <path class="st9" d="M453.44-296.67c.68.46,1.29.98,1.76,1.57,1.74,2.18-.46,4.36-1.56,4.7s-2.56-.17-4.09-.29c-2.32-.17-4.03.44-5.12,1.61-3.56,3.79-1.73,10.31-.67,14.29-4.73-8.96-4.28-15.44-.55-19.27,2.41-2.47,7.79-4.27,10.24-2.62Z"/>
  <path class="st9" d="M476.45-267.27c.34.2.59.44.79.67,1.96,2.15,1.37,4.74-.34,5.38-1.71.64-1.82.37-2.75,0-.93-.38-3.78-1.41-6.23-.75-2.45.66-5.93,2.47-7.72,8.56-.51,1.74-1.05,3.58-1.64,5.47-.23-8.71,1.33-14.15,6.56-17.8,2.93-2.05,8.38-3.25,11.32-1.53Z"/>
  <path class="st9" d="M448.71-214.96c8.24-1.66,10.53-7.31,9.5-13.23,0,0,.25-4.27,5.01-2.63,2.32.8,3.35,2.58,3.67,4.78-.38,4.7-6.66,11.24-18.17,11.08Z"/>
  <path class="st9" d="M401.16-181.35c-1.72-.75-3.13-1.81-3.88-3.2-2.4-4.42,1.9-6,2.99-5.37,8.45,4.89,15.79-2.12,7.7-9.65-.51-.48-1.16-.97-1.91-1.5,17.52,6.2,6.43,24.68-4.9,19.72Z"/>
  <path class="st2" d="M375.13-287.19s-3.61-2.06-7.66.92c-4.05,2.98-3.88,8.01-3.65,11.11.24,3.11,1.96,6.74,5.43,8.05,3.48,1.31,7.56-.22,9.25-3.68,1.69-3.46,3-12.42-3.37-16.41Z"/>
  <path class="st7" d="M371.99-282.95c2.72,0,4.92,2.85,4.92,6.36s-2.2,6.36-4.92,6.36-4.92-2.85-4.92-6.36,2.2-6.36,4.92-6.36Z"/>
  <path class="st2" d="M373.75-282.11c1.19,0,2.16.97,2.16,2.16s-.97,2.16-2.16,2.16-2.16-.97-2.16-2.16.97-2.16,2.16-2.16Z"/>
  <path class="st2" d="M405.08-287.19s-3.61-2.06-7.66.92c-4.05,2.98-3.88,8.01-3.64,11.11.24,3.11,1.96,6.74,5.43,8.05,3.48,1.31,7.56-.22,9.25-3.68,1.69-3.46,3-12.42-3.37-16.41Z"/>
  <path class="st7" d="M401.93-282.95c2.72,0,4.92,2.85,4.92,6.36s-2.2,6.36-4.92,6.36-4.92-2.85-4.92-6.36,2.2-6.36,4.92-6.36Z"/>
  <path class="st2" d="M403.69-282.11c1.19,0,2.16.97,2.16,2.16s-.97,2.16-2.16,2.16-2.16-.97-2.16-2.16.97-2.16,2.16-2.16Z"/>
  <path class="st1" d="M-489.43-745.56s7.52-.02,5.29-7.58c-2.23-7.55-8.45-14.5-10.68-28.4-1.14-7.12-.08-17.63,6.37-26.91,6.8-9.78,20.55-17.01,32.58-16.87,12.04-.14,25.26,5.59,32.58,16.87,6.15,9.48,7.51,19.79,6.37,26.91-2.23,13.9-8.34,20.54-10.57,28.09-2.23,7.55,4.72,7.58,4.72,7.58-1.91,14.25-26.97,11.29-34.82,8.97-6.86,2.02-34.65,1.39-31.84-8.67Z"/>
  <path class="st7" d="M-461.03-766.69s1.99,2.57,4.21,2.68c2.21.11,3.96-1.27,4.54-1.94.58-.67.57-.85.73-.85s.74-.32,1.06.26c.32.58.2.85.17.92-.03.08,0,.12-.08.23-2.16,3.09-6.97,4.22-10.03,1.75-.98-.79-1.55-1.49-1.75-1.92-.24-.5.29-1.32,1.16-1.14Z"/>
  <path class="st1" d="M-477.62-737.97c-.46,10.67-5.29,13.03-9.66,14.46-6.5,2.13-19.29-.51-29.14,4.19-5.39,2.57-9.39,8.04-9.32,13.91.1,10.01,9.73,15.54,18.22,11.37,2.77-1.36,1.14-7.4-2.14-6.24-1.5.53-7.4,1.36-7.43-4.15-.03-5.51,5.71-7.49,11.76-7.72,14.68-.57,28.09.05,37.05-13,.91-1.33.73,5.3-7.32,11.01-8.05,5.71-16.39,10.34-18.15,18.76-1.76,8.42,2.49,12.68,8.11,14.88,5.62,2.2,11.41-.5,13.29-2.44,3.02-3.15.29-7.54-2.46-5.42-.3.23-3.27,2.03-5.84,1.61-2.58-.42-5.2-3.63-3.53-6.82,1.67-3.18,6.04-6.75,9.56-8.7,13.63-7.55,23.28-19.51,24.55-36.35l1.32-17.5s-6.03,1.72-7.92,2.88c-1.89,1.16-5.07,13.16-20.96,15.28Z"/>
  <path class="st1" d="M-438.97-738.13s11.37,19.7,30.53,23.27c11.28,2.1,25.71-.16,23.45-13.18,0,0,.25-4.27,5.01-2.63,2.32.8,3.35,2.58,3.67,4.78,2.55,17.69-17.64,22.89-31.33,21.5-16.18-1.65-27.38-10.52-34.87-18.72-.13-.14-.88-1.17-.99-.91-.18.45.3,2.35.09,2.11-3.31-3.66-5.76-8.81-6.96-10.76-3.87-6.31-4.02-4.06-4.02-4.4s.7-1.49,1.34-1.74c.64-.25,11.86-1.93,14.09.7Z"/>
  <path class="st1" d="M-445.49-732.47c1.04,10.32,4.98,17.44,16.96,25.6,8.93,6.09,8.13,17.7,1.64,23.61-4.87,4.43-16.28,3.88-19.04-1.21-2.4-4.42,1.9-6,2.99-5.37,8.45,4.89,15.79-2.12,7.7-9.65-4.68-4.36-20.69-10.27-19.98-26.9.04-.87-1.28-10.04,3.12-10.94,1.24-.25,4.67,4.35,6.6,4.86Z"/>
  <path class="st1" d="M-427.08-746.64c.08,14.12,24.48,18.25,31.21,3.39,3.86-8.53,6.05-20.74,13.01-24.25,6.96-3.51,14.92-1.17,16.88.98,1.96,2.15,1.37,4.74-.34,5.38-1.71.64-1.82.37-2.75,0-.93-.38-3.78-1.41-6.23-.75-2.45.66-5.93,2.47-7.72,8.57-2.93,9.98-6.7,23.44-17.23,28.35-15.29,7.12-31.92-5.7-32.31-5.57-1.72.56,4.2,8.04,3.78,7.43-.57-.81-12.07-5.8-12.07-5.8,0,0,4.07-9.08,4.34-9.66.27-.59,4.75-8.6,9.44-8.05Z"/>
  <path class="st1" d="M-429.96-751.47s1.81,7.01,10.74,5.42c8.94-1.59,12.26-9.93,12.29-17.39.03-7.46-3.14-12.41-2.75-20.97.62-13.65,17.12-16.26,21.63-10.59,1.74,2.18-.46,4.36-1.56,4.7-1.1.35-2.56-.17-4.09-.29-7.04-.51-7.95,6.53-7,11.13,1.21,5.84,4.41,12.95,3.61,21.32-.9,9.42-10.03,21.99-22.22,21.43-8.32-.38-14.71-3.39-10.64-14.75Z"/>
  <path class="st1" d="M-483.18-748.48s-1.9,3.97-9.54,2.66c-7.65-1.31-10.47-9.32-10.68-16.28-.25-8.1,6.59-29.35-10.31-31.63-6.87-.93-14.52,4.44-13.34,12.77.48,3.41,6.44,3.17,6.22,1.43-.61-4.8,2.51-6.59,3.94-6.74,6.56-.66,7.34,6.94,6.56,11.25-1.16,6.44-3.95,13.61-1.88,22.23,1.68,7,11.59,16.21,19.91,16.64,7.78.41,12.48-3.25,9.13-12.34Z"/>
  <path class="st1" d="M-513.33-734.26c-2.87-2.14-6.1-4.28-8.45-5.4-5.51-2.61-10.37-2.26-15.22,4.4-2.15,2.96-6.99.31-5.38-3.4,2.58-5.95,6.22-9.21,10.63-10.48,8-2.3,13.35.9,19.53,5.4,8.8,6.41,19.41,15.6,31.02,1.02,1.67,3.39,30.07-15.43,9.2,9.5-10.9,13.02-30.42,7.08-41.33-1.06Z"/>
  <path class="st6" d="M-526-787.55c-1.14,2.06-1.68,4-1.06,6.62,1.07,4.51,6.44,3.17,6.22,1.43-.61-4.8,2.51-6.59,3.94-6.74,2.05-.21,3.54.4,4.58,1.45,2.31,2.32,2.7,7.2,1.37,12.71-.11.61,6.65-11.4-1.47-17.44-4.25-3.16-11.25-2.23-13.58,1.97Z"/>
  <path class="st6" d="M-514.05-734.74c-4.29-2.97-8.8-6.27-13.4-6.35-3.31-.06-6.45,1.61-9.58,5.91-2.15,2.96-6.99.31-5.38-3.4.24-.55.49-1.08.75-1.59,6.91-13.41,22.74-4.04,27.61,5.43Z"/>
  <path class="st6" d="M-519.34-694.17c3.42,1.89,7.76,2.13,11.83.13,2.77-1.36,1.14-7.4-2.14-6.24-1.5.53-7.4,1.24-7.43-4.15-.03-5.39,6.89-7.45,17.96-7.81-19.81-6.6-33.5,10.74-20.23,18.08Z"/>
  <path class="st6" d="M-472.34-682.72c3.46-3.16.29-7.79-2.46-5.67-.3.23-3.27,2.03-5.84,1.61-1.62-.27-3.29-1.62-3.83-3.4-1.67-5.52,10.24-12.05,14.64-15.06-22.44,5.77-22.78,16.1-17.76,21.49,4.02,4.31,11.73,4.25,15.25,1.03Z"/>
  <path class="st6" d="M-389.79-796.58c.68.46,1.29.98,1.76,1.57,1.74,2.18-.46,4.36-1.56,4.7-1.1.35-2.56-.17-4.09-.29-2.32-.17-4.03.44-5.12,1.61-3.56,3.79-1.73,10.31-.67,14.29-4.73-8.96-4.28-15.44-.55-19.27,2.41-2.47,7.79-4.27,10.24-2.62Z"/>
  <path class="st6" d="M-366.78-767.19c.34.2.59.44.79.67,1.96,2.15,1.37,4.74-.34,5.38-1.71.64-1.82.37-2.75,0-.93-.38-3.78-1.41-6.23-.75-2.45.66-5.93,2.47-7.72,8.56-.51,1.74-1.05,3.58-1.64,5.47-.23-8.71,1.33-14.15,6.56-17.8,2.93-2.05,8.38-3.25,11.32-1.53Z"/>
  <path class="st6" d="M-394.51-714.88c8.24-1.67,10.53-7.31,9.5-13.23,0,0,.25-4.27,5.01-2.63,2.32.8,3.35,2.58,3.67,4.78-.38,4.7-6.66,11.24-18.17,11.08Z"/>
  <path class="st6" d="M-442.07-681.27c-1.72-.75-3.13-1.81-3.88-3.2-2.4-4.42,1.9-6,2.99-5.37,8.45,4.89,15.79-2.12,7.7-9.65-.51-.48-1.16-.97-1.91-1.5,17.52,6.2,6.43,24.68-4.9,19.72Z"/>
  <path class="st2" d="M-468.09-787.11s-3.61-2.06-7.66.92c-4.05,2.97-3.88,8.01-3.65,11.11.24,3.11,1.96,6.74,5.43,8.05,3.48,1.31,7.56-.22,9.25-3.68,1.69-3.46,3-12.42-3.37-16.41Z"/>
  <path class="st7" d="M-471.23-782.86c2.72,0,4.92,2.85,4.92,6.36s-2.2,6.36-4.92,6.36-4.92-2.85-4.92-6.36,2.2-6.36,4.92-6.36Z"/>
  <path class="st2" d="M-469.47-782.02c1.19,0,2.16.97,2.16,2.16s-.97,2.16-2.16,2.16-2.16-.97-2.16-2.16.97-2.16,2.16-2.16Z"/>
  <path class="st2" d="M-438.15-787.11s-3.61-2.06-7.66.92c-4.05,2.97-3.88,8.01-3.65,11.11.24,3.11,1.96,6.74,5.43,8.05,3.48,1.31,7.56-.22,9.25-3.68,1.69-3.46,3-12.42-3.37-16.41Z"/>
  <path class="st7" d="M-441.29-782.86c2.72,0,4.92,2.85,4.92,6.36s-2.2,6.36-4.92,6.36-4.92-2.85-4.92-6.36,2.2-6.36,4.92-6.36Z"/>
  <path class="st2" d="M-439.53-782.02c1.19,0,2.16.97,2.16,2.16s-.97,2.16-2.16,2.16-2.16-.97-2.16-2.16.97-2.16,2.16-2.16Z"/>
  <path class="st5" d="M353.79-724.67s7.52-.02,5.29-7.58c-2.23-7.55-8.45-14.5-10.68-28.4-1.14-7.12-.08-17.63,6.37-26.91,6.8-9.78,20.55-17.01,32.58-16.87,12.04-.14,25.26,5.59,32.58,16.87,6.15,9.48,7.51,19.79,6.37,26.91-2.23,13.9-8.34,20.54-10.57,28.09-2.23,7.55,4.72,7.58,4.72,7.58-1.91,14.25-26.97,11.29-34.82,8.97-6.86,2.02-34.65,1.39-31.84-8.67Z"/>
  <path class="st2" d="M382.19-745.8s1.99,2.57,4.21,2.68c2.21.11,3.96-1.27,4.54-1.94.58-.67.57-.85.73-.85s.74-.32,1.06.26c.32.58.2.85.17.92-.03.08,0,.12-.08.23-2.16,3.09-6.97,4.22-10.03,1.74-.98-.79-1.55-1.49-1.75-1.92-.24-.5.29-1.32,1.16-1.14Z"/>
  <path class="st5" d="M365.61-717.09c-.46,10.67-5.29,13.03-9.66,14.46-6.5,2.13-19.29-.51-29.14,4.19-5.39,2.57-9.39,8.04-9.32,13.91.1,10.01,9.73,15.54,18.22,11.37,2.77-1.36,1.14-7.4-2.14-6.24-1.5.53-7.4,1.36-7.43-4.15-.03-5.51,5.71-7.49,11.76-7.73,14.68-.57,28.09.05,37.05-13,.91-1.33.73,5.3-7.32,11.01-8.04,5.71-16.39,10.34-18.15,18.76-1.76,8.42,2.49,12.68,8.11,14.88,5.62,2.2,11.41-.5,13.29-2.44,3.02-3.15.29-7.54-2.46-5.42-.3.23-3.27,2.03-5.84,1.61-2.58-.42-5.2-3.63-3.53-6.82,1.67-3.18,6.04-6.75,9.56-8.7,13.63-7.55,23.28-19.51,24.55-36.35l1.32-17.5s-6.03,1.72-7.92,2.88c-1.89,1.16-5.07,13.16-20.96,15.28Z"/>
  <path class="st5" d="M404.26-717.24s11.37,19.7,30.53,23.27c11.28,2.1,25.71-.16,23.45-13.18,0,0,.25-4.27,5.01-2.63,2.32.8,3.35,2.58,3.67,4.78,2.55,17.69-17.64,22.89-31.33,21.5-16.18-1.65-27.38-10.52-34.87-18.72-.13-.14-.88-1.16-.99-.91-.18.45.3,2.35.09,2.11-3.31-3.66-5.76-8.81-6.96-10.76-3.87-6.31-4.02-4.06-4.02-4.4s.7-1.49,1.34-1.74c.64-.25,11.86-1.93,14.09.7Z"/>
  <path class="st5" d="M397.73-711.59c1.04,10.32,4.98,17.44,16.96,25.6,8.93,6.09,8.13,17.7,1.64,23.61-4.87,4.43-16.28,3.88-19.04-1.21-2.4-4.42,1.9-6,2.99-5.37,8.45,4.89,15.79-2.12,7.7-9.65-4.68-4.36-20.69-10.27-19.98-26.9.04-.87-1.28-10.04,3.12-10.94,1.24-.25,4.67,4.35,6.6,4.86Z"/>
  <path class="st5" d="M416.15-725.75c.08,14.12,24.48,18.25,31.21,3.39,3.86-8.53,6.05-20.74,13.01-24.25,6.96-3.51,14.92-1.17,16.88.98,1.96,2.15,1.37,4.74-.34,5.38-1.71.64-1.82.37-2.75,0-.93-.38-3.78-1.41-6.23-.75-2.45.66-5.93,2.47-7.72,8.57-2.93,9.98-6.7,23.44-17.23,28.35-15.29,7.12-31.92-5.7-32.31-5.57-1.72.56,4.2,8.04,3.78,7.43-.57-.81-12.07-5.8-12.07-5.8,0,0,4.07-9.08,4.34-9.66.27-.59,4.75-8.6,9.44-8.05Z"/>
  <path class="st5" d="M413.26-730.58s1.81,7.01,10.74,5.42c8.94-1.59,12.26-9.93,12.29-17.39s-3.14-12.41-2.75-20.97c.62-13.65,17.12-16.26,21.63-10.59,1.74,2.18-.46,4.36-1.56,4.7-1.1.35-2.56-.17-4.09-.29-7.04-.51-7.95,6.53-7,11.13,1.21,5.84,4.41,12.95,3.61,21.32-.9,9.42-10.03,21.99-22.22,21.43-8.32-.38-14.71-3.39-10.64-14.75Z"/>
  <path class="st5" d="M360.04-727.59s-1.9,3.97-9.54,2.66c-7.65-1.31-10.47-9.32-10.68-16.28-.25-8.1,6.59-29.35-10.31-31.63-6.87-.93-14.52,4.44-13.34,12.77.48,3.41,6.44,3.17,6.22,1.43-.61-4.8,2.51-6.59,3.94-6.74,6.56-.66,7.34,6.94,6.56,11.25-1.16,6.44-3.95,13.61-1.88,22.23,1.68,7,11.59,16.21,19.91,16.64,7.78.41,12.47-3.25,9.13-12.34Z"/>
  <path class="st5" d="M329.89-713.37c-2.87-2.14-6.1-4.28-8.45-5.4-5.51-2.61-10.37-2.26-15.22,4.4-2.15,2.96-6.99.31-5.38-3.4,2.58-5.95,6.22-9.21,10.63-10.48,8-2.3,13.35.9,19.53,5.4,8.8,6.41,19.41,15.6,31.02,1.02,1.67,3.39,30.07-15.43,9.2,9.5-10.9,13.02-30.42,7.08-41.33-1.06Z"/>
  <path class="st6" d="M317.22-766.66c-1.14,2.06-1.68,4-1.06,6.62,1.07,4.51,6.44,3.17,6.22,1.43-.61-4.8,2.51-6.59,3.94-6.74,2.05-.2,3.54.4,4.58,1.45,2.31,2.32,2.7,7.2,1.37,12.71-.11.61,6.65-11.4-1.47-17.44-4.25-3.16-11.25-2.23-13.58,1.97Z"/>
  <path class="st6" d="M329.17-713.85c-4.29-2.97-8.8-6.27-13.4-6.35-3.31-.06-6.45,1.61-9.58,5.91-2.15,2.96-6.99.31-5.38-3.4.24-.55.49-1.08.75-1.59,6.91-13.41,22.74-4.04,27.61,5.43Z"/>
  <path class="st6" d="M323.89-673.29c3.42,1.89,7.76,2.13,11.83.13,2.77-1.36,1.14-7.4-2.14-6.24-1.5.53-7.4,1.24-7.43-4.15-.03-5.39,6.89-7.45,17.96-7.81-19.81-6.6-33.5,10.74-20.23,18.08Z"/>
  <path class="st6" d="M370.89-661.83c3.46-3.16.29-7.79-2.46-5.67-.3.23-3.27,2.03-5.84,1.61-1.62-.27-3.29-1.62-3.83-3.4-1.67-5.52,10.24-12.05,14.64-15.06-22.44,5.77-22.78,16.1-17.76,21.49,4.01,4.31,11.73,4.25,15.25,1.03Z"/>
  <path class="st6" d="M453.44-775.69c.68.46,1.29.98,1.76,1.58,1.74,2.18-.46,4.36-1.56,4.7-1.1.35-2.56-.17-4.09-.29-2.32-.17-4.03.44-5.12,1.61-3.56,3.79-1.73,10.31-.67,14.29-4.73-8.96-4.28-15.44-.55-19.27,2.41-2.47,7.79-4.27,10.24-2.62Z"/>
  <path class="st6" d="M476.45-746.3c.34.2.59.44.79.67,1.96,2.15,1.37,4.75-.34,5.38-1.71.64-1.82.37-2.75,0-.93-.38-3.78-1.41-6.23-.75-2.45.66-5.93,2.47-7.72,8.56-.51,1.74-1.05,3.58-1.64,5.47-.23-8.71,1.33-14.15,6.56-17.8,2.93-2.05,8.38-3.25,11.32-1.53Z"/>
  <path class="st6" d="M448.71-693.99c8.24-1.67,10.53-7.31,9.5-13.23,0,0,.25-4.27,5.01-2.63,2.32.8,3.35,2.58,3.67,4.78-.38,4.7-6.66,11.24-18.17,11.08Z"/>
  <path class="st0" d="M401.16-660.38c-1.72-.75-3.13-1.81-3.88-3.2-2.4-4.42,1.9-6,2.99-5.37,8.45,4.89,15.79-2.12,7.7-9.65-.51-.48-1.16-.97-1.91-1.5,17.52,6.2,6.43,24.68-4.9,19.71Z"/>
  <path class="st2" d="M375.13-766.22s-3.61-2.06-7.66.92c-4.05,2.98-3.88,8.01-3.65,11.11.24,3.11,1.96,6.74,5.43,8.05,3.48,1.31,7.56-.22,9.25-3.68,1.69-3.46,3-12.42-3.37-16.41Z"/>
  <path class="st7" d="M371.99-761.97c2.72,0,4.92,2.85,4.92,6.36s-2.2,6.36-4.92,6.36-4.92-2.85-4.92-6.36,2.2-6.36,4.92-6.36Z"/>
  <path class="st2" d="M373.75-761.13c1.19,0,2.16.97,2.16,2.16s-.97,2.16-2.16,2.16-2.16-.97-2.16-2.16.97-2.16,2.16-2.16Z"/>
  <path class="st2" d="M405.08-766.22s-3.61-2.06-7.66.92c-4.05,2.98-3.88,8.01-3.64,11.11.24,3.11,1.96,6.74,5.43,8.05,3.48,1.31,7.56-.22,9.25-3.68,1.69-3.46,3-12.42-3.37-16.41Z"/>
  <path class="st7" d="M401.93-761.97c2.72,0,4.92,2.85,4.92,6.36s-2.2,6.36-4.92,6.36-4.92-2.85-4.92-6.36,2.2-6.36,4.92-6.36Z"/>
  <path class="st2" d="M403.69-761.13c1.19,0,2.16.97,2.16,2.16s-.97,2.16-2.16,2.16-2.16-.97-2.16-2.16.97-2.16,2.16-2.16Z"/>
  <path class="st4" d="M-489.43,219.46s7.52-.02,5.29-7.58c-2.23-7.55-8.45-14.5-10.68-28.4-1.14-7.12-.08-17.63,6.37-26.91,6.8-9.78,20.55-17.01,32.58-16.87,12.04-.14,25.26,5.59,32.58,16.87,6.15,9.48,7.51,19.79,6.37,26.91-2.23,13.9-8.34,20.54-10.57,28.09-2.23,7.55,4.72,7.58,4.72,7.58-1.91,14.25-26.97,11.29-34.82,8.97-6.86,2.02-34.65,1.39-31.84-8.67Z"/>
  <path class="st2" d="M-461.03,198.33s1.99,2.57,4.21,2.68c2.21.11,3.96-1.27,4.54-1.94.58-.67.57-.85.73-.85s.74-.32,1.06.26c.32.58.2.85.17.92-.03.08,0,.12-.08.23-2.16,3.09-6.97,4.22-10.03,1.74-.98-.79-1.55-1.49-1.75-1.92-.24-.5.29-1.32,1.16-1.14Z"/>
  <path class="st4" d="M-477.62,227.04c-.46,10.67-5.29,13.03-9.66,14.46-6.5,2.13-19.29-.51-29.14,4.19-5.39,2.57-9.39,8.04-9.32,13.91.1,10.01,9.73,15.54,18.22,11.37,2.77-1.36,1.14-7.4-2.14-6.24-1.5.53-7.4,1.36-7.43-4.15-.03-5.51,5.71-7.49,11.76-7.73,14.68-.57,28.09.05,37.05-13,.91-1.33.73,5.3-7.32,11.01-8.05,5.71-16.39,10.34-18.15,18.76-1.76,8.42,2.49,12.68,8.11,14.88,5.62,2.2,11.41-.5,13.29-2.44,3.02-3.15.29-7.54-2.46-5.42-.3.23-3.27,2.03-5.84,1.61-2.58-.42-5.2-3.63-3.53-6.82,1.67-3.18,6.04-6.75,9.56-8.7,13.63-7.55,23.28-19.51,24.55-36.35l1.32-17.5s-6.03,1.72-7.92,2.88c-1.89,1.16-5.07,13.16-20.96,15.28Z"/>
  <path class="st4" d="M-438.97,226.89s11.37,19.7,30.53,23.27c11.28,2.1,25.71-.16,23.45-13.18,0,0,.25-4.27,5.01-2.63,2.32.8,3.35,2.58,3.67,4.78,2.55,17.69-17.64,22.89-31.33,21.5-16.18-1.65-27.38-10.52-34.87-18.72-.13-.14-.88-1.17-.99-.91-.18.45.3,2.35.09,2.11-3.31-3.66-5.76-8.81-6.96-10.76-3.87-6.31-4.02-4.06-4.02-4.4s.7-1.49,1.34-1.74c.64-.25,11.86-1.93,14.09.7Z"/>
  <path class="st4" d="M-445.49,232.54c1.04,10.32,4.98,17.44,16.96,25.6,8.93,6.09,8.13,17.7,1.64,23.61-4.87,4.43-16.28,3.88-19.04-1.21-2.4-4.42,1.9-6,2.99-5.37,8.45,4.89,15.79-2.12,7.7-9.65-4.68-4.36-20.69-10.27-19.98-26.9.04-.87-1.28-10.04,3.12-10.94,1.24-.25,4.67,4.35,6.6,4.86Z"/>
  <path class="st4" d="M-427.08,218.38c.08,14.12,24.48,18.25,31.21,3.39,3.86-8.53,6.05-20.74,13.01-24.25,6.96-3.51,14.92-1.17,16.88.98,1.96,2.15,1.37,4.74-.34,5.38-1.71.64-1.82.37-2.75,0-.93-.38-3.78-1.41-6.23-.75-2.45.66-5.93,2.47-7.72,8.57-2.93,9.98-6.7,23.44-17.23,28.35-15.29,7.12-31.92-5.7-32.31-5.57-1.72.56,4.2,8.04,3.78,7.43-.57-.81-12.07-5.8-12.07-5.8,0,0,4.07-9.08,4.34-9.66.27-.59,4.75-8.6,9.44-8.05Z"/>
  <path class="st4" d="M-429.96,213.55s1.81,7.01,10.74,5.42c8.94-1.59,12.26-9.93,12.29-17.39.03-7.46-3.14-12.41-2.75-20.97.62-13.65,17.12-16.26,21.63-10.59,1.74,2.18-.46,4.36-1.56,4.7-1.1.35-2.56-.17-4.09-.29-7.04-.51-7.95,6.53-7,11.13,1.21,5.84,4.41,12.95,3.61,21.32-.9,9.42-10.03,21.99-22.22,21.43-8.32-.38-14.71-3.39-10.64-14.75Z"/>
  <path class="st4" d="M-483.18,216.54s-1.9,3.97-9.54,2.66c-7.65-1.31-10.47-9.32-10.68-16.28-.25-8.1,6.59-29.35-10.31-31.63-6.87-.93-14.52,4.44-13.34,12.77.48,3.41,6.44,3.17,6.22,1.43-.61-4.8,2.51-6.59,3.94-6.74,6.56-.66,7.34,6.94,6.56,11.25-1.16,6.44-3.95,13.61-1.88,22.23,1.68,7,11.59,16.21,19.91,16.64,7.78.41,12.48-3.25,9.13-12.34Z"/>
  <path class="st4" d="M-513.33,230.76c-2.87-2.14-6.1-4.28-8.45-5.4-5.51-2.61-10.37-2.26-15.22,4.4-2.15,2.96-6.99.31-5.38-3.4,2.58-5.95,6.22-9.21,10.63-10.48,8-2.3,13.35.9,19.53,5.4,8.8,6.41,19.41,15.6,31.02,1.02,1.67,3.39,30.07-15.43,9.2,9.5-10.9,13.02-30.42,7.08-41.33-1.06Z"/>
  <path class="st8" d="M-526,177.46c-1.14,2.06-1.68,4-1.06,6.62,1.07,4.51,6.44,3.17,6.22,1.43-.61-4.8,2.51-6.59,3.94-6.74,2.05-.2,3.54.4,4.58,1.45,2.31,2.32,2.7,7.2,1.37,12.71-.11.61,6.65-11.4-1.47-17.44-4.25-3.16-11.25-2.23-13.58,1.97Z"/>
  <path class="st8" d="M-514.05,230.27c-4.29-2.97-8.8-6.27-13.4-6.35-3.31-.06-6.45,1.61-9.58,5.91-2.15,2.96-6.99.31-5.38-3.4.24-.55.49-1.08.75-1.59,6.91-13.41,22.74-4.04,27.61,5.43Z"/>
  <path class="st8" d="M-519.34,270.84c3.42,1.89,7.76,2.13,11.83.13,2.77-1.36,1.14-7.4-2.14-6.24-1.5.53-7.4,1.24-7.43-4.15-.03-5.39,6.89-7.45,17.96-7.81-19.81-6.6-33.5,10.74-20.23,18.08Z"/>
  <path class="st8" d="M-472.34,282.3c3.46-3.16.29-7.79-2.46-5.67-.3.23-3.27,2.03-5.84,1.61-1.62-.27-3.29-1.62-3.83-3.4-1.67-5.52,10.24-12.05,14.64-15.06-22.44,5.77-22.78,16.1-17.76,21.49,4.02,4.31,11.73,4.25,15.25,1.03Z"/>
  <path class="st8" d="M-389.79,168.43c.68.46,1.29.98,1.76,1.57,1.74,2.18-.46,4.36-1.56,4.7-1.1.35-2.56-.17-4.09-.29-2.32-.17-4.03.44-5.12,1.61-3.56,3.79-1.73,10.31-.67,14.29-4.73-8.96-4.28-15.44-.55-19.27,2.41-2.47,7.79-4.27,10.24-2.62Z"/>
  <path class="st8" d="M-366.78,197.83c.34.2.59.44.79.67,1.96,2.15,1.37,4.74-.34,5.38-1.71.64-1.82.37-2.75,0-.93-.38-3.78-1.41-6.23-.75-2.45.66-5.93,2.47-7.72,8.56-.51,1.74-1.05,3.58-1.64,5.47-.23-8.71,1.33-14.15,6.56-17.8,2.93-2.05,8.38-3.25,11.32-1.53Z"/>
  <path class="st8" d="M-394.51,250.14c8.24-1.67,10.53-7.31,9.5-13.23,0,0,.25-4.27,5.01-2.63,2.32.8,3.35,2.58,3.67,4.78-.38,4.7-6.66,11.24-18.17,11.08Z"/>
  <path class="st8" d="M-442.07,283.74c-1.72-.75-3.13-1.81-3.88-3.2-2.4-4.42,1.9-6,2.99-5.37,8.45,4.89,15.79-2.12,7.7-9.65-.51-.48-1.16-.97-1.91-1.5,17.52,6.2,6.43,24.68-4.9,19.71Z"/>
  <path class="st2" d="M-468.09,177.9s-3.61-2.06-7.66.92c-4.05,2.98-3.88,8.01-3.65,11.11.24,3.11,1.96,6.74,5.43,8.05,3.48,1.31,7.56-.22,9.25-3.68,1.69-3.46,3-12.42-3.37-16.41Z"/>
  <path class="st7" d="M-471.23,182.15c2.72,0,4.92,2.85,4.92,6.36s-2.2,6.36-4.92,6.36-4.92-2.85-4.92-6.36,2.2-6.36,4.92-6.36Z"/>
  <path class="st2" d="M-469.47,182.99c1.19,0,2.16.97,2.16,2.16s-.97,2.16-2.16,2.16-2.16-.97-2.16-2.16.97-2.16,2.16-2.16Z"/>
  <path class="st2" d="M-438.15,177.9s-3.61-2.06-7.66.92c-4.05,2.98-3.88,8.01-3.65,11.11.24,3.11,1.96,6.74,5.43,8.05,3.48,1.31,7.56-.22,9.25-3.68s3-12.42-3.37-16.41Z"/>
  <path class="st7" d="M-441.29,182.15c2.72,0,4.92,2.85,4.92,6.36s-2.2,6.36-4.92,6.36-4.92-2.85-4.92-6.36,2.2-6.36,4.92-6.36Z"/>
  <path class="st2" d="M-439.53,182.99c1.19,0,2.16.97,2.16,2.16s-.97,2.16-2.16,2.16-2.16-.97-2.16-2.16.97-2.16,2.16-2.16Z"/>
  <path class="st3" d="M353.79,234.13s7.52-.02,5.29-7.58c-2.23-7.55-8.45-14.5-10.68-28.4-1.14-7.12-.08-17.63,6.37-26.91,6.8-9.78,20.55-17.01,32.58-16.87,12.04-.14,25.26,5.59,32.58,16.87,6.15,9.48,7.51,19.79,6.37,26.91-2.23,13.9-8.34,20.54-10.57,28.09-2.23,7.55,4.72,7.58,4.72,7.58-1.91,14.25-26.97,11.29-34.82,8.97-6.86,2.02-34.65,1.39-31.84-8.67Z"/>
  <path class="st2" d="M382.19,213s1.99,2.57,4.21,2.68c2.21.11,3.96-1.27,4.54-1.94.58-.67.57-.85.73-.85s.74-.32,1.06.26c.32.58.2.85.17.93-.03.08,0,.12-.08.23-2.16,3.09-6.97,4.22-10.03,1.74-.98-.79-1.55-1.49-1.75-1.92-.24-.5.29-1.32,1.16-1.14Z"/>
  <path class="st3" d="M365.61,241.71c-.46,10.67-5.29,13.03-9.66,14.46-6.5,2.13-19.29-.51-29.14,4.19-5.39,2.57-9.39,8.04-9.32,13.91.1,10.01,9.73,15.54,18.22,11.37,2.77-1.36,1.14-7.4-2.14-6.24-1.5.53-7.4,1.36-7.43-4.15-.03-5.51,5.71-7.49,11.76-7.73,14.68-.57,28.09.05,37.05-13,.91-1.33.73,5.3-7.32,11.01-8.04,5.71-16.39,10.34-18.15,18.76-1.76,8.42,2.49,12.68,8.11,14.88,5.62,2.2,11.41-.5,13.29-2.44,3.02-3.15.29-7.54-2.46-5.42-.3.23-3.27,2.03-5.84,1.61-2.58-.42-5.2-3.63-3.53-6.82,1.67-3.18,6.04-6.75,9.56-8.7,13.63-7.55,23.28-19.51,24.55-36.35l1.32-17.5s-6.03,1.72-7.92,2.88c-1.89,1.16-5.07,13.16-20.96,15.28Z"/>
  <path class="st3" d="M404.26,241.56s11.37,19.7,30.53,23.27c11.28,2.1,25.71-.16,23.45-13.18,0,0,.25-4.27,5.01-2.63,2.32.8,3.35,2.58,3.67,4.78,2.55,17.69-17.64,22.89-31.33,21.5-16.18-1.65-27.38-10.52-34.87-18.72-.13-.14-.88-1.16-.99-.91-.18.45.3,2.35.09,2.11-3.31-3.66-5.76-8.81-6.96-10.76-3.87-6.31-4.02-4.06-4.02-4.4s.7-1.49,1.34-1.74c.64-.25,11.86-1.93,14.09.69Z"/>
  <path class="st3" d="M397.73,247.21c1.04,10.32,4.98,17.44,16.96,25.6,8.93,6.09,8.13,17.7,1.64,23.61-4.87,4.43-16.28,3.88-19.04-1.21-2.4-4.42,1.9-6,2.99-5.37,8.45,4.89,15.79-2.12,7.7-9.65-4.68-4.36-20.69-10.27-19.98-26.9.04-.87-1.28-10.04,3.12-10.94,1.24-.25,4.67,4.35,6.6,4.86Z"/>
  <path class="st3" d="M416.15,233.05c.08,14.12,24.48,18.25,31.21,3.39,3.86-8.53,6.05-20.74,13.01-24.25,6.96-3.51,14.92-1.17,16.88.98,1.96,2.15,1.37,4.74-.34,5.38-1.71.64-1.82.37-2.75,0-.93-.38-3.78-1.41-6.23-.75-2.45.66-5.93,2.47-7.72,8.57-2.93,9.98-6.7,23.44-17.23,28.35-15.29,7.12-31.92-5.7-32.31-5.57-1.72.56,4.2,8.04,3.78,7.43-.57-.81-12.07-5.8-12.07-5.8,0,0,4.07-9.08,4.34-9.66.27-.59,4.75-8.6,9.44-8.05Z"/>
  <path class="st3" d="M413.26,228.22s1.81,7.01,10.74,5.42c8.94-1.59,12.26-9.93,12.29-17.39s-3.14-12.41-2.75-20.97c.62-13.65,17.12-16.26,21.63-10.6,1.74,2.18-.46,4.36-1.56,4.7s-2.56-.17-4.09-.29c-7.04-.51-7.95,6.53-7,11.13,1.21,5.84,4.41,12.95,3.61,21.32-.9,9.42-10.03,21.99-22.22,21.43-8.32-.38-14.71-3.39-10.64-14.75Z"/>
  <path class="st3" d="M360.04,231.21s-1.9,3.97-9.54,2.66c-7.65-1.31-10.47-9.32-10.68-16.28-.25-8.1,6.59-29.35-10.31-31.63-6.87-.93-14.52,4.44-13.34,12.77.48,3.41,6.44,3.17,6.22,1.43-.61-4.8,2.51-6.59,3.94-6.74,6.56-.66,7.34,6.94,6.56,11.25-1.16,6.44-3.95,13.61-1.88,22.23,1.68,7,11.59,16.21,19.91,16.64,7.78.41,12.47-3.25,9.13-12.34Z"/>
  <path class="st3" d="M329.89,245.43c-2.87-2.14-6.1-4.28-8.45-5.4-5.51-2.61-10.37-2.26-15.22,4.4-2.15,2.96-6.99.31-5.38-3.4,2.58-5.95,6.22-9.21,10.63-10.48,8-2.3,13.35.9,19.53,5.4,8.8,6.41,19.41,15.6,31.02,1.02,1.67,3.39,30.07-15.43,9.2,9.5-10.9,13.02-30.42,7.08-41.33-1.06Z"/>
  <path class="st9" d="M317.22,192.13c-1.14,2.06-1.68,4-1.06,6.62,1.07,4.51,6.44,3.17,6.22,1.43-.61-4.8,2.51-6.59,3.94-6.74,2.05-.2,3.54.4,4.58,1.45,2.31,2.32,2.7,7.2,1.37,12.71-.11.61,6.65-11.4-1.47-17.44-4.25-3.16-11.25-2.23-13.58,1.97Z"/>
  <path class="st9" d="M329.17,244.94c-4.29-2.97-8.8-6.27-13.4-6.35-3.31-.06-6.45,1.61-9.58,5.91-2.15,2.96-6.99.31-5.38-3.4.24-.55.49-1.08.75-1.59,6.91-13.41,22.74-4.04,27.61,5.43Z"/>
  <path class="st9" d="M323.89,285.51c3.42,1.89,7.76,2.13,11.83.13,2.77-1.36,1.14-7.4-2.14-6.24-1.5.53-7.4,1.24-7.43-4.15-.03-5.39,6.89-7.45,17.96-7.81-19.81-6.6-33.5,10.74-20.23,18.08Z"/>
  <path class="st9" d="M370.89,296.97c3.46-3.16.29-7.79-2.46-5.67-.3.23-3.27,2.03-5.84,1.61-1.62-.27-3.29-1.62-3.83-3.4-1.67-5.52,10.24-12.05,14.64-15.06-22.44,5.77-22.78,16.1-17.76,21.49,4.01,4.31,11.73,4.25,15.25,1.03Z"/>
  <path class="st9" d="M453.44,183.11c.68.46,1.29.98,1.76,1.57,1.74,2.18-.46,4.36-1.56,4.7s-2.56-.17-4.09-.29c-2.32-.17-4.03.44-5.12,1.61-3.56,3.79-1.73,10.31-.67,14.29-4.73-8.96-4.28-15.44-.55-19.27,2.41-2.47,7.79-4.27,10.24-2.62Z"/>
  <path class="st9" d="M476.45,212.5c.34.2.59.44.79.67,1.96,2.15,1.37,4.74-.34,5.38-1.71.64-1.82.37-2.75,0-.93-.38-3.78-1.41-6.23-.75-2.45.66-5.93,2.47-7.72,8.56-.51,1.74-1.05,3.58-1.64,5.47-.23-8.71,1.33-14.15,6.56-17.8,2.93-2.05,8.38-3.25,11.32-1.53Z"/>
  <path class="st9" d="M448.71,264.81c8.24-1.66,10.53-7.31,9.5-13.23,0,0,.25-4.27,5.01-2.63,2.32.8,3.35,2.58,3.67,4.78-.38,4.7-6.66,11.24-18.17,11.08Z"/>
  <path class="st9" d="M401.16,298.42c-1.72-.75-3.13-1.81-3.88-3.2-2.4-4.42,1.9-6,2.99-5.37,8.45,4.89,15.79-2.12,7.7-9.65-.51-.48-1.16-.97-1.91-1.5,17.52,6.2,6.43,24.68-4.9,19.72Z"/>
  <path class="st2" d="M375.13,192.58s-3.61-2.06-7.66.92c-4.05,2.98-3.88,8.01-3.65,11.11.24,3.11,1.96,6.74,5.43,8.05,3.48,1.31,7.56-.22,9.25-3.68,1.69-3.46,3-12.42-3.37-16.41Z"/>
  <path class="st7" d="M371.99,196.83c2.72,0,4.92,2.85,4.92,6.36s-2.2,6.36-4.92,6.36-4.92-2.85-4.92-6.36,2.2-6.36,4.92-6.36Z"/>
  <path class="st2" d="M373.75,197.67c1.19,0,2.16.97,2.16,2.16s-.97,2.16-2.16,2.16-2.16-.97-2.16-2.16.97-2.16,2.16-2.16Z"/>
  <path class="st2" d="M405.08,192.58s-3.61-2.06-7.66.92c-4.05,2.98-3.88,8.01-3.64,11.11.24,3.11,1.96,6.74,5.43,8.05,3.48,1.31,7.56-.22,9.25-3.68,1.69-3.46,3-12.42-3.37-16.41Z"/>
  <path class="st7" d="M401.93,196.83c2.72,0,4.92,2.85,4.92,6.36s-2.2,6.36-4.92,6.36-4.92-2.85-4.92-6.36,2.2-6.36,4.92-6.36Z"/>
  <path class="st2" d="M403.69,197.67c1.19,0,2.16.97,2.16,2.16s-.97,2.16-2.16,2.16-2.16-.97-2.16-2.16.97-2.16,2.16-2.16Z"/>
</svg>